{
	"asset": {
		"generator": "Tilt Brush 18.3.b01f7ec1e",
		"version": "1.1",
		"copyright": "Unknown."
	},
	"buffers": {
		"sketch": {
			"byteLength": 685132,
			"type": "arraybuffer",
			"uri": "sketch.bin"
		}
	},
	"accessors": {
		"accessor_position_Light_2241cd32-8ba2-48a5-9ee7-2caef7e9ed62_0_0": {
			"bufferView": "vec3BufferView",
			"byteOffset": 0,
			"byteStride": 12,
			"componentType": 5126,
			"count": 9588,
			"max": [ 1.525476, 2.192387, 1.536628 ],
			"min": [ -1.459537, 0.0221833, -1.572309 ],
			"type": "VEC3"
		 },
		"accessor_normal_Light_2241cd32-8ba2-48a5-9ee7-2caef7e9ed62_0_0": {
			"bufferView": "vec3BufferView",
			"byteOffset": 115056,
			"byteStride": 12,
			"componentType": 5126,
			"count": 9588,
			"max": [ 0.895826, 0.9999038, 0.999822 ],
			"min": [ -0.99976, -0.9922881, -0.9832407 ],
			"type": "VEC3"
		 },
		"accessor_color_Light_2241cd32-8ba2-48a5-9ee7-2caef7e9ed62_0_0": {
			"bufferView": "vec4BufferView",
			"byteOffset": 0,
			"byteStride": 16,
			"componentType": 5126,
			"count": 9588,
			"max": [ 0.9843137, 0.9333333, 0.9215686, 1 ],
			"min": [ 0.1764706, 0.7176471, 0.1058824, 0.5490196 ],
			"type": "VEC4"
		 },
		"accessor_tangent_Light_2241cd32-8ba2-48a5-9ee7-2caef7e9ed62_0_0": {
			"bufferView": "vec4BufferView",
			"byteOffset": 153408,
			"byteStride": 16,
			"componentType": 5126,
			"count": 9588,
			"max": [ 0.9999944, 0.9999974, 0.9999507, 1 ],
			"min": [ -0.9999805, -0.99997, -0.9999707, 1 ],
			"type": "VEC4"
		 },
		"accessor_uv0_Light_2241cd32-8ba2-48a5-9ee7-2caef7e9ed62_0_0": {
			"bufferView": "vec2BufferView",
			"byteOffset": 0,
			"byteStride": 8,
			"componentType": 5126,
			"count": 9588,
			"max": [ 1, 1 ],
			"min": [ 0, 0 ],
			"type": "VEC2"
		 },
		"accessor_indices_0_Light_2241cd32-8ba2-48a5-9ee7-2caef7e9ed62_0_0": {
			"bufferView": "ushortBufferView",
			"byteOffset": 0,
			"byteStride": 0,
			"componentType": 5123,
			"count": 28482,
			"max": [ 9587 ],
			"min": [ 0 ],
			"type": "SCALAR"
		 },
		"accessor_position_DuctTape_d0262945-853c-4481-9cbd-88586bed93cb_0_0": {
			"bufferView": "vec3BufferView",
			"byteOffset": 230112,
			"byteStride": 12,
			"componentType": 5126,
			"count": 208,
			"max": [ 0.2725793, 0.0773605, 0.7288299 ],
			"min": [ -0.1163923, 0.015545, 0.3577538 ],
			"type": "VEC3"
		 },
		"accessor_normal_DuctTape_d0262945-853c-4481-9cbd-88586bed93cb_0_0": {
			"bufferView": "vec3BufferView",
			"byteOffset": 232608,
			"byteStride": 12,
			"componentType": 5126,
			"count": 208,
			"max": [ 0.2446111, 0.9962061, 0.5226928 ],
			"min": [ -0.9783271, -0.5419167, -0.5851651 ],
			"type": "VEC3"
		 },
		"accessor_color_DuctTape_d0262945-853c-4481-9cbd-88586bed93cb_0_0": {
			"bufferView": "vec4BufferView",
			"byteOffset": 306816,
			"byteStride": 16,
			"componentType": 5126,
			"count": 208,
			"max": [ 0.9921569, 0.1058824, 0.2196078, 1 ],
			"min": [ 0.9921569, 0.1058824, 0.2196078, 0 ],
			"type": "VEC4"
		 },
		"accessor_tangent_DuctTape_d0262945-853c-4481-9cbd-88586bed93cb_0_0": {
			"bufferView": "vec4BufferView",
			"byteOffset": 310144,
			"byteStride": 16,
			"componentType": 5126,
			"count": 208,
			"max": [ 0.9094697, 0.9601634, 0.8491071, 1 ],
			"min": [ -0.709902, -0.2129267, -0.8894994, 1 ],
			"type": "VEC4"
		 },
		"accessor_uv0_DuctTape_d0262945-853c-4481-9cbd-88586bed93cb_0_0": {
			"bufferView": "vec2BufferView",
			"byteOffset": 76704,
			"byteStride": 8,
			"componentType": 5126,
			"count": 208,
			"max": [ 38.55619, 1 ],
			"min": [ 0.4670511, 0 ],
			"type": "VEC2"
		 },
		"accessor_indices_0_DuctTape_d0262945-853c-4481-9cbd-88586bed93cb_0_0": {
			"bufferView": "ushortBufferView",
			"byteOffset": 56964,
			"byteStride": 0,
			"componentType": 5123,
			"count": 612,
			"max": [ 207 ],
			"min": [ 0 ],
			"type": "SCALAR"
		 }
	},
	"bufferViews": {
		"ushortBufferView": {
			"buffer": "sketch",
			"byteLength": 58188,
			"byteOffset": 0,
			"target": 34963
		},
		"vec2BufferView": {
			"buffer": "sketch",
			"byteLength": 78368,
			"byteOffset": 58188,
			"target": 34962
		},
		"vec3BufferView": {
			"buffer": "sketch",
			"byteLength": 235104,
			"byteOffset": 136556,
			"target": 34962
		},
		"vec4BufferView": {
			"buffer": "sketch",
			"byteLength": 313472,
			"byteOffset": 371660,
			"target": 34962
		}
	},
	"meshes": {
		"mesh_Light_2241cd32-8ba2-48a5-9ee7-2caef7e9ed62_0_0": {
			"name": "mesh_Light_2241cd32-8ba2-48a5-9ee7-2caef7e9ed62_0_0",
			"primitives": [
				{
					"attributes": {
						"POSITION": "accessor_position_Light_2241cd32-8ba2-48a5-9ee7-2caef7e9ed62_0_0",
						"NORMAL": "accessor_normal_Light_2241cd32-8ba2-48a5-9ee7-2caef7e9ed62_0_0",
						"COLOR": "accessor_color_Light_2241cd32-8ba2-48a5-9ee7-2caef7e9ed62_0_0",
						"TANGENT": "accessor_tangent_Light_2241cd32-8ba2-48a5-9ee7-2caef7e9ed62_0_0",
						"TEXCOORD_0": "accessor_uv0_Light_2241cd32-8ba2-48a5-9ee7-2caef7e9ed62_0_0"
					},
					"indices": "accessor_indices_0_Light_2241cd32-8ba2-48a5-9ee7-2caef7e9ed62_0_0",
					"material": "material_2241cd32-8ba2-48a5-9ee7-2caef7e9ed62",
					"mode": 4
				}
			]
		},
		"mesh_DuctTape_d0262945-853c-4481-9cbd-88586bed93cb_0_0": {
			"name": "mesh_DuctTape_d0262945-853c-4481-9cbd-88586bed93cb_0_0",
			"primitives": [
				{
					"attributes": {
						"POSITION": "accessor_position_DuctTape_d0262945-853c-4481-9cbd-88586bed93cb_0_0",
						"NORMAL": "accessor_normal_DuctTape_d0262945-853c-4481-9cbd-88586bed93cb_0_0",
						"COLOR": "accessor_color_DuctTape_d0262945-853c-4481-9cbd-88586bed93cb_0_0",
						"TANGENT": "accessor_tangent_DuctTape_d0262945-853c-4481-9cbd-88586bed93cb_0_0",
						"TEXCOORD_0": "accessor_uv0_DuctTape_d0262945-853c-4481-9cbd-88586bed93cb_0_0"
					},
					"indices": "accessor_indices_0_DuctTape_d0262945-853c-4481-9cbd-88586bed93cb_0_0",
					"material": "material_d0262945-853c-4481-9cbd-88586bed93cb",
					"mode": 4
				}
			]
		}
	},
	"shaders": {
		"vertex_2241cd32-8ba2-48a5-9ee7-2caef7e9ed62": {
			"type": 35633,
			"uri": "https://www.tiltbrush.com/shaders/brushes/Light-2241cd32-8ba2-48a5-9ee7-2caef7e9ed62/Light-2241cd32-8ba2-48a5-9ee7-2caef7e9ed62-v10.0-vertex.glsl"
		},
		"fragment_2241cd32-8ba2-48a5-9ee7-2caef7e9ed62": {
			"type": 35632,
			"uri": "https://www.tiltbrush.com/shaders/brushes/Light-2241cd32-8ba2-48a5-9ee7-2caef7e9ed62/Light-2241cd32-8ba2-48a5-9ee7-2caef7e9ed62-v10.0-fragment.glsl"
		},
		"vertex_d0262945-853c-4481-9cbd-88586bed93cb": {
			"type": 35633,
			"uri": "https://www.tiltbrush.com/shaders/brushes/DuctTape-d0262945-853c-4481-9cbd-88586bed93cb/DuctTape-d0262945-853c-4481-9cbd-88586bed93cb-v10.0-vertex.glsl"
		},
		"fragment_d0262945-853c-4481-9cbd-88586bed93cb": {
			"type": 35632,
			"uri": "https://www.tiltbrush.com/shaders/brushes/DuctTape-d0262945-853c-4481-9cbd-88586bed93cb/DuctTape-d0262945-853c-4481-9cbd-88586bed93cb-v10.0-fragment.glsl"
		}
	},
	"programs": {
		"program_2241cd32-8ba2-48a5-9ee7-2caef7e9ed62": {
			"attributes": [
				"a_position",
				"a_normal",
				"a_color",
				"a_tangent",
				"a_texcoord0"				
			],
			"vertexShader": "vertex_2241cd32-8ba2-48a5-9ee7-2caef7e9ed62",
			"fragmentShader": "fragment_2241cd32-8ba2-48a5-9ee7-2caef7e9ed62"
		},
		"program_d0262945-853c-4481-9cbd-88586bed93cb": {
			"attributes": [
				"a_position",
				"a_normal",
				"a_color",
				"a_tangent",
				"a_texcoord0"				
			],
			"vertexShader": "vertex_d0262945-853c-4481-9cbd-88586bed93cb",
			"fragmentShader": "fragment_d0262945-853c-4481-9cbd-88586bed93cb"
		}
	},
	"techniques": {
		"technique_2241cd32-8ba2-48a5-9ee7-2caef7e9ed62": {
			"program": "program_2241cd32-8ba2-48a5-9ee7-2caef7e9ed62",
			"parameters": {
				"position": {
					"type": 35665,
					"semantic": "POSITION"
				},
				"normal": {
					"type": 35665,
					"semantic": "NORMAL"
				},
				"color": {
					"type": 35666,
					"semantic": "COLOR"
				},
				"tangent": {
					"type": 35666,
					"semantic": "TANGENT"
				},
				"texcoord0": {
					"type": 35664,
					"semantic": "TEXCOORD_0"
				},
				"modelViewMatrix": {
					"type": 35676,
					"semantic": "MODELVIEW"
				},
				"projectionMatrix": {
					"type": 35676,
					"semantic": "PROJECTION"
				},
				"normalMatrix": {
					"type": 35675,
					"semantic": "MODELVIEWINVERSETRANSPOSE"
				},
				"SceneLight_0_matrix": {
					"type": 35676,
					"semantic": "MODELVIEW",
					"node": "node_SceneLight_0_-3064"
				},
				"SceneLight_0_color": {
					"type": 35666,
					"node": "node_SceneLight_0_-3064"
				},
				"SceneLight_1_matrix": {
					"type": 35676,
					"semantic": "MODELVIEW",
					"node": "node_SceneLight_1_-3070"
				},
				"SceneLight_1_color": {
					"type": 35666,
					"node": "node_SceneLight_1_-3070"
				},
				"ambient_light_color": {
					"type": 35666
				},
				"EmissionGain": {
					"type": 5126
				},
				"MainTex_TexelSize": {
					"type": 35666
				},
				"MainTex": {
					"type": 35678
				}				
			},
			"attributes": {
				"a_position": "position",
				"a_normal": "normal",
				"a_color": "color",
				"a_tangent": "tangent",
				"a_texcoord0": "texcoord0"				
			},
			"uniforms": {
				"u_modelViewMatrix": "modelViewMatrix",
				"u_projectionMatrix": "projectionMatrix",
				"u_normalMatrix": "normalMatrix",
				"u_SceneLight_0_matrix": "SceneLight_0_matrix",
				"u_SceneLight_0_color": "SceneLight_0_color",
				"u_SceneLight_1_matrix": "SceneLight_1_matrix",
				"u_SceneLight_1_color": "SceneLight_1_color",
				"u_ambient_light_color": "ambient_light_color",
				"u_EmissionGain": "EmissionGain",
				"u_MainTex_TexelSize": "MainTex_TexelSize",
				"u_MainTex": "MainTex"				
			},
			"states": {
				"enable": [
					2929,
					3042
				],
				"functions": {
					"blendFuncSeparate": [1, 1, 1, 1],
					"depthMask": [false]
				}
			}
		},
		"technique_d0262945-853c-4481-9cbd-88586bed93cb": {
			"program": "program_d0262945-853c-4481-9cbd-88586bed93cb",
			"parameters": {
				"position": {
					"type": 35665,
					"semantic": "POSITION"
				},
				"normal": {
					"type": 35665,
					"semantic": "NORMAL"
				},
				"color": {
					"type": 35666,
					"semantic": "COLOR"
				},
				"tangent": {
					"type": 35666,
					"semantic": "TANGENT"
				},
				"texcoord0": {
					"type": 35664,
					"semantic": "TEXCOORD_0"
				},
				"modelViewMatrix": {
					"type": 35676,
					"semantic": "MODELVIEW"
				},
				"projectionMatrix": {
					"type": 35676,
					"semantic": "PROJECTION"
				},
				"normalMatrix": {
					"type": 35675,
					"semantic": "MODELVIEWINVERSETRANSPOSE"
				},
				"SceneLight_0_matrix": {
					"type": 35676,
					"semantic": "MODELVIEW",
					"node": "node_SceneLight_0_-3064"
				},
				"SceneLight_0_color": {
					"type": 35666,
					"node": "node_SceneLight_0_-3064"
				},
				"SceneLight_1_matrix": {
					"type": 35676,
					"semantic": "MODELVIEW",
					"node": "node_SceneLight_1_-3070"
				},
				"SceneLight_1_color": {
					"type": 35666,
					"node": "node_SceneLight_1_-3070"
				},
				"ambient_light_color": {
					"type": 35666
				},
				"Shininess": {
					"type": 5126
				},
				"Cutoff": {
					"type": 5126
				},
				"Color": {
					"type": 35666
				},
				"SpecColor": {
					"type": 35666
				},
				"MainTex_TexelSize": {
					"type": 35666
				},
				"BumpMap_TexelSize": {
					"type": 35666
				},
				"MainTex": {
					"type": 35678
				},
				"BumpMap": {
					"type": 35678
				}				
			},
			"attributes": {
				"a_position": "position",
				"a_normal": "normal",
				"a_color": "color",
				"a_tangent": "tangent",
				"a_texcoord0": "texcoord0"				
			},
			"uniforms": {
				"u_modelViewMatrix": "modelViewMatrix",
				"u_projectionMatrix": "projectionMatrix",
				"u_normalMatrix": "normalMatrix",
				"u_SceneLight_0_matrix": "SceneLight_0_matrix",
				"u_SceneLight_0_color": "SceneLight_0_color",
				"u_SceneLight_1_matrix": "SceneLight_1_matrix",
				"u_SceneLight_1_color": "SceneLight_1_color",
				"u_ambient_light_color": "ambient_light_color",
				"u_Shininess": "Shininess",
				"u_Cutoff": "Cutoff",
				"u_Color": "Color",
				"u_SpecColor": "SpecColor",
				"u_MainTex_TexelSize": "MainTex_TexelSize",
				"u_BumpMap_TexelSize": "BumpMap_TexelSize",
				"u_MainTex": "MainTex",
				"u_BumpMap": "BumpMap"				
			},
			"states": {
				"enable": [
					2929
				],
				"functions": {
					"depthMask": [true]
				}
			}
		}
	},
	"samplers": {
		"sampler_LINEAR_LINEAR_REPEAT": {
			"magFilter": 9729,
			"minFilter": 9987,
			"wrapS": 10497,
			"wrapT": 10497
		}
	},
	"textures": {
		"texture_2241cd32-8ba2-48a5-9ee7-2caef7e9ed62_MainTex": {
			"format": 6408,
			"internalFormat": 6408,
			"sampler": "sampler_LINEAR_LINEAR_REPEAT",
			"source": "image_2241cd32-8ba2-48a5-9ee7-2caef7e9ed62_MainTex",
			"target": 3553,
			"type": 5121
		},
		"texture_d0262945-853c-4481-9cbd-88586bed93cb_MainTex": {
			"format": 6408,
			"internalFormat": 6408,
			"sampler": "sampler_LINEAR_LINEAR_REPEAT",
			"source": "image_d0262945-853c-4481-9cbd-88586bed93cb_MainTex",
			"target": 3553,
			"type": 5121
		},
		"texture_d0262945-853c-4481-9cbd-88586bed93cb_BumpMap": {
			"format": 6408,
			"internalFormat": 6408,
			"sampler": "sampler_LINEAR_LINEAR_REPEAT",
			"source": "image_d0262945-853c-4481-9cbd-88586bed93cb_BumpMap",
			"target": 3553,
			"type": 5121
		}
	},
	"images": {
		"image_2241cd32-8ba2-48a5-9ee7-2caef7e9ed62_MainTex": {
			"uri": "https://www.tiltbrush.com/shaders/brushes/Light-2241cd32-8ba2-48a5-9ee7-2caef7e9ed62/Light-2241cd32-8ba2-48a5-9ee7-2caef7e9ed62-v10.0-MainTex.png"
		},
		"image_d0262945-853c-4481-9cbd-88586bed93cb_MainTex": {
			"uri": "https://www.tiltbrush.com/shaders/brushes/DuctTape-d0262945-853c-4481-9cbd-88586bed93cb/DuctTape-d0262945-853c-4481-9cbd-88586bed93cb-v10.0-MainTex.png"
		},
		"image_d0262945-853c-4481-9cbd-88586bed93cb_BumpMap": {
			"uri": "https://www.tiltbrush.com/shaders/brushes/DuctTape-d0262945-853c-4481-9cbd-88586bed93cb/DuctTape-d0262945-853c-4481-9cbd-88586bed93cb-v10.0-BumpMap.png"
		}
	},
	"materials": {
		"material_2241cd32-8ba2-48a5-9ee7-2caef7e9ed62": {
			"technique": "technique_2241cd32-8ba2-48a5-9ee7-2caef7e9ed62",
			"values": {
				"SceneLight_0_color": [0.7780392, 0.8156863, 0.9913726, 1],
				"SceneLight_1_color": [0.4282353, 0.4211765, 0.3458824, 1],
				"ambient_light_color": [0.3921569, 0.3921569, 0.3921569, 1],
				"EmissionGain": 0.45,
				"MainTex_TexelSize": [0.001953125, 0.00390625, 512, 256],
				"MainTex": "texture_2241cd32-8ba2-48a5-9ee7-2caef7e9ed62_MainTex"				
			},
			"name": "material_2241cd32-8ba2-48a5-9ee7-2caef7e9ed62"
		},
		"material_d0262945-853c-4481-9cbd-88586bed93cb": {
			"technique": "technique_d0262945-853c-4481-9cbd-88586bed93cb",
			"values": {
				"SceneLight_0_color": [0.7780392, 0.8156863, 0.9913726, 1],
				"SceneLight_1_color": [0.4282353, 0.4211765, 0.3458824, 1],
				"ambient_light_color": [0.3921569, 0.3921569, 0.3921569, 1],
				"Shininess": 0.414,
				"Cutoff": 0.2,
				"Color": [0.7058824, 0.7058824, 0.7058824, 1],
				"SpecColor": [0.5372549, 0.5372549, 0.5372549, 1],
				"MainTex_TexelSize": [0.001953125, 0.00390625, 512, 256],
				"BumpMap_TexelSize": [0.001953125, 0.00390625, 512, 256],
				"MainTex": "texture_d0262945-853c-4481-9cbd-88586bed93cb_MainTex",
				"BumpMap": "texture_d0262945-853c-4481-9cbd-88586bed93cb_BumpMap"				
			},
			"name": "material_d0262945-853c-4481-9cbd-88586bed93cb"
		}
	},
	"nodes": {
		"node_Light_2241cd32-8ba2-48a5-9ee7-2caef7e9ed62_0_0": {
			"name": "node_Light_2241cd32-8ba2-48a5-9ee7-2caef7e9ed62_0_0",
			"meshes": [
				"mesh_Light_2241cd32-8ba2-48a5-9ee7-2caef7e9ed62_0_0"
			],
			"matrix": [1, 0, 0, 0, 0, 1, 0, 0, 0, 0, 1, 0, 0, 0, 0, 1]
		},
		"node_SceneLight_0_-3064": {
			"name": "node_SceneLight_0_-3064",
			"light": "SceneLight_0",
			"matrix": [0.898794, 0.2191856, -0.3796406, 0, -0.4383712, 0.449397, -0.7783785, 0, -1.490116E-08, 0.8660254, 0.4999999, 0, 0, 0, 0.065, 1]
		},
		"node_SceneLight_1_-3070": {
			"name": "node_SceneLight_1_-3070",
			"light": "SceneLight_1",
			"matrix": [0.7660444, -0.4924039, -0.4131759, 0, -0.6427876, -0.5868242, -0.4924039, 0, 8.940697E-08, 0.6427876, -0.7660446, 0, 0, 0, 0.065, 1]
		},
		"node_DuctTape_d0262945-853c-4481-9cbd-88586bed93cb_0_0": {
			"name": "node_DuctTape_d0262945-853c-4481-9cbd-88586bed93cb_0_0",
			"meshes": [
				"mesh_DuctTape_d0262945-853c-4481-9cbd-88586bed93cb_0_0"
			],
			"matrix": [1, 0, 0, 0, 0, 1, 0, 0, 0, 0, 1, 0, 0, 0, 0, 1]
		}
	},
	"scene": "defaultScene",
	"scenes": {
		"defaultScene": {
			"nodes": [
				"node_Light_2241cd32-8ba2-48a5-9ee7-2caef7e9ed62_0_0",
				"node_SceneLight_0_-3064",
				"node_SceneLight_1_-3070",
				"node_DuctTape_d0262945-853c-4481-9cbd-88586bed93cb_0_0"
			],
			"extras": {
				"TB_EnvironmentGuid": "ab080599-e465-4a6d-8587-43bf495af68b",
				"TB_Environment": "Standard",
				"TB_UseGradient": "true",
				"TB_SkyColorA": "0.2745098, 0.2745098, 0.3176471",
				"TB_SkyColorB": "0.03529412, 0.03529412, 0.08627451",
				"TB_SkyGradientDirection": "0, 1, 0",
				"TB_FogColor": "0.1647059, 0.1647059, 0.2078431",
				"TB_FogDensity": "0.0025",
				"TB_SkyColorHorizon": "0.2745098, 0.2745098, 0.3176471",
				"TB_SkyColorZenith": "0.03529412, 0.03529412, 0.08627451"
			}
		}
	}
}